<svg xmlns="http://www.w3.org/2000/svg" viewBox="0 0 1254 1254">
<path d="M 519 570 L 460 566 L 338 568 L 223 578 L 108 594 Z" fill="#D4AF37"/>
<path d="M 593 115 L 482 150 L 368 226 L 279 334 L 222 468 L 291 340 L 374 244 L 460 181 L 555 141 L 668 123 L 789 136 L 887 173 L 983 240 L 1059 331 L 1111 443 L 1135 579 L 1124 697 L 1097 783 L 1052 866 L 983 945 L 926 989 L 860 1024 L 771 1050 L 685 1056 L 599 1044 L 698 1060 L 811 1051 L 889 1025 L 971 975 L 1041 907 L 1091 833 L 1129 744 L 1149 653 L 1152 558 L 1139 474 L 1110 388 L 1066 309 L 996 228 L 932 179 L 856 140 L 767 115 L 706 108 Z" fill="#D4AF37"/>
<path d="M 830 648 L 799 625 L 760 616 L 714 617 L 657 630 L 537 685 L 387 785 L 454 711 L 477 672 L 480 647 L 437 636 L 269 643 L 401 649 L 423 662 L 427 687 L 412 720 L 317 830 L 281 885 L 270 894 L 240 893 L 226 902 L 189 1000 L 190 1038 L 199 1038 L 247 973 L 353 870 L 625 668 L 365 1047 L 527 948 L 728 876 L 790 846 L 824 818 L 838 791 L 837 769 L 827 753 L 784 730 L 831 687 Z" fill="#000000"/>
<path d="M 496 607 L 452 602 L 331 602 L 201 610 L 72 622 L 138 621 Z" fill="#000000"/>
<path d="M 560 494 L 521 486 L 457 482 L 393 483 L 281 493 L 331 492 L 382 493 L 385 495 L 273 509 L 139 536 L 237 522 L 363 508 L 489 497 Z" fill="#000000"/>
<path d="M 1048 469 L 1032 466 L 1020 474 L 1014 474 L 1010 476 L 1004 487 L 1003 494 L 1007 516 L 988 534 L 970 547 L 957 554 L 943 558 L 928 565 L 928 557 L 924 538 L 920 526 L 914 516 L 915 492 L 913 479 L 904 454 L 881 491 L 865 511 L 864 518 L 871 547 L 881 573 L 898 604 L 911 621 L 918 626 L 927 626 L 947 615 L 962 604 L 977 591 L 1027 535 L 1038 528 L 1050 516 L 1059 501 L 1060 492 L 1056 482 L 1053 479 L 1052 473 Z" fill="#000000"/>
<path d="M 896 435 L 879 419 L 858 413 L 735 535 L 778 411 L 727 419 L 629 506 L 690 392 L 697 359 L 687 343 L 671 334 L 627 330 L 551 347 L 426 395 L 388 417 L 371 442 L 378 444 L 411 429 L 434 425 L 439 429 L 428 442 L 430 448 L 460 430 L 477 402 L 534 383 L 598 372 L 624 373 L 638 380 L 640 391 L 521 659 L 717 472 L 671 594 L 732 583 L 896 447 Z" fill="#000000"/>
<path d="M 981 346 L 979 335 L 965 319 L 947 308 L 923 302 L 903 302 L 880 306 L 864 311 L 845 320 L 897 320 L 912 324 L 925 330 L 830 335 L 750 342 L 783 342 L 828 346 L 854 352 L 880 362 L 885 365 L 881 367 L 878 381 L 868 400 L 881 403 L 900 414 L 919 418 L 938 429 L 948 428 L 951 418 L 956 414 L 957 410 L 961 406 L 962 400 L 970 399 L 972 397 L 970 376 L 975 370 L 976 358 Z" fill="#000000"/>
</svg>
